PathFileType	4	(X/Y/Z)	E:/New_biomech_experiments/MICROGRAVITY MOCAP/Session 2024-06-22/Neeraj_FullAction_pp_22_06_24_t02 (1).trc	
DataRate	CameraRate	NumFrames	NumMarkers	Units	OrigDataRate	OrigDataStartFrame	OrigNumFrames	
120.00	120.00	24	19	m	120.00	948	7579	
Frame#	Time	RSHO			MarkerSet_RBAK			MarkerSet_LBHD			MarkerSet_RUPA			MarkerSet_PRSHO			MarkerSet_RELB			MarkerSet_CLAV			MarkerSet_RFHD			MarkerSet_LFHD			MarkerSet_C7			MarkerSet_RWRB			MarkerSet_RFRM			MarkerSet_RWRA			MarkerSet_MRELB			MarkerSet_DIA			MarkerSet_STRN			MarkerSet_ARSHO			MarkerSet_RBHD			MarkerSet_T10			
		X1	Y1	Z1	X2	Y2	Z2	X3	Y3	Z3	X4	Y4	Z4	X5	Y5	Z5	X6	Y6	Z6	X7	Y7	Z7	X8	Y8	Z8	X9	Y9	Z9	X10	Y10	Z10	X11	Y11	Z11	X12	Y12	Z12	X13	Y13	Z13	X14	Y14	Z14	X15	Y15	Z15	X16	Y16	Z16	X17	Y17	Z17	X18	Y18	Z18	X19	Y19	Z19	

948	7.892	-0.04434	1.56430	0.08704	-0.10953	1.36863	-0.00575	-0.03126	1.71641	-0.12754	-0.03305	1.50423	0.26253	-0.10419	1.47366	0.06327	-0.04268	1.48250	0.39439	0.11181	1.48914	-0.07753	0.06680	1.80997	0.01966	0.08208	1.82784	-0.08152	-0.08823	1.52964	-0.08630	-0.06908	1.39994	0.67842	-0.03306	1.46110	0.52928	0.02990	1.39798	0.66628	0.00870	1.37363	0.38317	0.08313	1.17577	0.09932	0.14669	1.32582	-0.06188	0.06692	1.50760	0.08194	-0.05805	1.71453	-0.02454	-0.10153	1.33544	-0.07282 
949	7.900	-0.04430	1.56426	0.08712	-0.10953	1.36863	-0.00576	-0.03123	1.71641	-0.12757	-0.03306	1.50413	0.26254	-0.10419	1.47365	0.06330	-0.04268	1.48231	0.39435	0.11181	1.48913	-0.07750	0.06680	1.80997	0.01966	0.08211	1.82780	-0.08154	-0.08822	1.52963	-0.08630	-0.06902	1.39963	0.67836	-0.03301	1.46089	0.52929	0.02994	1.39772	0.66626	0.00875	1.37349	0.38311	0.08312	1.17575	0.09937	0.14667	1.32581	-0.06186	0.06697	1.50760	0.08196	-0.05800	1.71451	-0.02452	-0.10153	1.33547	-0.07277 
950	7.908	-0.04388	1.56410	0.08765	-0.10956	1.36864	-0.00575	-0.03149	1.71652	-0.12786	-0.03272	1.50322	0.26215	-0.10420	1.47363	0.06330	-0.04269	1.48214	0.39434	0.11181	1.48910	-0.07750	0.06689	1.81008	0.01979	0.08219	1.82781	-0.08149	-0.08820	1.52965	-0.08629	-0.06895	1.39934	0.67839	-0.03297	1.46067	0.52929	0.03001	1.39745	0.66626	0.00878	1.37329	0.38309	0.08314	1.17575	0.09935	0.14666	1.32580	-0.06187	0.06697	1.50760	0.08197	-0.05854	1.71424	-0.02487	-0.10150	1.33545	-0.07275 
951	7.917	-0.04425	1.56422	0.08719	-0.10956	1.36862	-0.00574	-0.03147	1.71651	-0.12786	-0.03306	1.50391	0.26257	-0.10419	1.47362	0.06330	-0.04268	1.48196	0.39435	0.11181	1.48909	-0.07750	0.06704	1.81005	0.01983	0.08224	1.82779	-0.08146	-0.08821	1.52961	-0.08631	-0.06888	1.39905	0.67836	-0.03303	1.46031	0.52926	0.03009	1.39717	0.66616	0.00885	1.37316	0.38305	0.08318	1.17574	0.09938	0.14664	1.32579	-0.06186	0.06697	1.50756	0.08199	-0.05797	1.71456	-0.02453	-0.10152	1.33545	-0.07277 
952	7.925	-0.04423	1.56417	0.08721	-0.10954	1.36860	-0.00571	-0.03113	1.71641	-0.12754	-0.03302	1.50382	0.26260	-0.10418	1.47359	0.06332	-0.04265	1.48180	0.39433	0.11182	1.48908	-0.07749	0.06692	1.80992	0.01974	0.08227	1.82777	-0.08149	-0.08822	1.52963	-0.08628	-0.06882	1.39941	0.67861	-0.03288	1.46017	0.52929	0.03002	1.39636	0.66588	0.00890	1.37300	0.38300	0.08315	1.17573	0.09935	0.14664	1.32575	-0.06186	0.06695	1.50753	0.08204	-0.05848	1.71424	-0.02489	-0.10143	1.33540	-0.07273 
953	7.933	-0.04423	1.56417	0.08725	-0.10956	1.36860	-0.00575	-0.03110	1.71644	-0.12754	-0.03268	1.50294	0.26218	-0.10418	1.47362	0.06331	-0.04263	1.48163	0.39434	0.11174	1.48902	-0.07755	0.06694	1.80989	0.01975	0.08232	1.82778	-0.08144	-0.08822	1.52963	-0.08629	-0.06879	1.39915	0.67855	-0.03286	1.45996	0.52928	0.03011	1.39606	0.66579	0.00891	1.37280	0.38292	0.08316	1.17572	0.09937	0.14663	1.32576	-0.06182	0.06693	1.50750	0.08200	-0.05792	1.71456	-0.02457	-0.10149	1.33542	-0.07269 
954	7.942	-0.04423	1.56413	0.08730	-0.10954	1.36860	-0.00572	-0.03109	1.71643	-0.12754	-0.03267	1.50283	0.26220	-0.10416	1.47363	0.06331	-0.04261	1.48145	0.39434	0.11181	1.48906	-0.07747	0.06693	1.80990	0.01974	0.08233	1.82778	-0.08144	-0.08821	1.52962	-0.08627	-0.06871	1.39880	0.67854	-0.03296	1.45958	0.52925	0.03017	1.39572	0.66575	0.00889	1.37265	0.38283	0.08319	1.17572	0.09940	0.14664	1.32575	-0.06183	0.06697	1.50747	0.08202	-0.05795	1.71478	-0.02241	-0.10150	1.33542	-0.07270 
955	7.950	-0.04417	1.56410	0.08734	-0.10953	1.36860	-0.00573	-0.03107	1.71644	-0.12753	-0.03266	1.50273	0.26221	-0.10417	1.47360	0.06334	-0.04258	1.48128	0.39435	0.11181	1.48905	-0.07745	0.06699	1.80989	0.01976	0.08233	1.82776	-0.08144	-0.08821	1.52960	-0.08624	-0.06854	1.39862	0.67862	-0.03289	1.45928	0.52923	0.03020	1.39541	0.66569	0.00891	1.37245	0.38272	0.08319	1.17569	0.09940	0.14660	1.32572	-0.06183	0.06693	1.50741	0.08203	-0.05793	1.71457	-0.02457	-0.10142	1.33539	-0.07268 
956	7.958	-0.04427	1.56411	0.08729	-0.10951	1.36791	-0.00622	-0.03105	1.71646	-0.12750	-0.03265	1.50262	0.26220	-0.10418	1.47360	0.06334	-0.04273	1.48100	0.39422	0.11181	1.48905	-0.07746	0.06719	1.81001	0.01989	0.08236	1.82774	-0.08145	-0.08821	1.52959	-0.08622	-0.06848	1.39830	0.67856	-0.03287	1.45906	0.52921	0.03029	1.39509	0.66559	0.00886	1.37226	0.38264	0.08320	1.17566	0.09939	0.14663	1.32572	-0.06187	0.06696	1.50740	0.08203	-0.05476	1.71117	-0.02517	-0.10148	1.33542	-0.07268 
957	7.967	-0.04425	1.56410	0.08733	-0.10954	1.36856	-0.00571	-0.03088	1.71664	-0.12743	-0.03268	1.50251	0.26223	-0.10416	1.47357	0.06332	-0.04267	1.48085	0.39426	0.11172	1.48899	-0.07760	0.06708	1.80989	0.01979	0.08241	1.82776	-0.08143	-0.08821	1.52958	-0.08621	-0.06843	1.39797	0.67852	-0.03279	1.45880	0.52924	0.03035	1.39477	0.66557	0.00882	1.37205	0.38256	0.08321	1.17569	0.09939	0.14657	1.32572	-0.06184	0.06694	1.50738	0.08204	-0.05476	1.71215	-0.02531	-0.10147	1.33543	-0.07266 
958	7.975	-0.04422	1.56403	0.08738	-0.10953	1.36854	-0.00570	-0.03138	1.71654	-0.12782	-0.03263	1.50239	0.26223	-0.10418	1.47357	0.06332	-0.04266	1.48067	0.39426	0.11179	1.48904	-0.07747	0.06708	1.80987	0.01977	0.08260	1.82787	-0.08126	-0.08823	1.52957	-0.08620	-0.06841	1.39682	0.67818	-0.03280	1.45856	0.52916	0.03042	1.39442	0.66553	0.00883	1.37186	0.38247	0.08324	1.17568	0.09939	0.14656	1.32571	-0.06184	0.06694	1.50738	0.08206	-0.05787	1.71458	-0.02450	-0.10148	1.33541	-0.07265 
959	7.983	-0.04378	1.56386	0.08790	-0.10954	1.36852	-0.00569	-0.03108	1.71642	-0.12750	-0.03261	1.50227	0.26228	-0.10419	1.47353	0.06335	-0.04261	1.48047	0.39429	0.11178	1.48904	-0.07748	0.06712	1.80986	0.01979	0.08242	1.82773	-0.08144	-0.08824	1.52955	-0.08619	-0.06837	1.39646	0.67809	-0.03277	1.45835	0.52920	0.03055	1.39436	0.66554	0.00891	1.37174	0.38240	0.08342	1.17557	0.09948	0.14658	1.32570	-0.06185	0.06693	1.50737	0.08208	-0.05468	1.71120	-0.02512	-0.10144	1.33538	-0.07263 
960	7.992	-0.04426	1.56399	0.08740	-0.10953	1.36851	-0.00570	-0.03109	1.71645	-0.12748	-0.03262	1.50218	0.26228	-0.10421	1.47350	0.06334	-0.04262	1.48032	0.39427	0.11170	1.48900	-0.07758	0.06716	1.80985	0.01980	0.08241	1.82773	-0.08146	-0.08828	1.52955	-0.08617	-0.06841	1.39608	0.67800	-0.03276	1.45808	0.52918	0.03055	1.39402	0.66545	0.00892	1.37156	0.38235	0.08328	1.17565	0.09939	0.14656	1.32571	-0.06183	0.06693	1.50734	0.08206	-0.05790	1.71460	-0.02450	-0.10138	1.33535	-0.07260 
961	8.000	-0.04421	1.56395	0.08747	-0.10953	1.36849	-0.00570	-0.03111	1.71648	-0.12743	-0.03265	1.50205	0.26230	-0.10422	1.47348	0.06334	-0.04254	1.47939	0.39317	0.11174	1.48904	-0.07749	0.06724	1.80994	0.01984	0.08239	1.82774	-0.08145	-0.08830	1.52953	-0.08617	-0.06840	1.39571	0.67792	-0.03260	1.45776	0.52952	0.03059	1.39371	0.66542	0.00899	1.37137	0.38224	0.08328	1.17565	0.09938	0.14654	1.32572	-0.06186	0.06692	1.50730	0.08205	-0.05790	1.71476	-0.02225	-0.10136	1.33532	-0.07258 
962	8.008	-0.04423	1.56390	0.08749	-0.10953	1.36845	-0.00569	-0.03095	1.71667	-0.12742	-0.03267	1.50193	0.26229	-0.10422	1.47342	0.06335	-0.04260	1.47971	0.39411	0.11167	1.48898	-0.07761	0.06714	1.80986	0.01975	0.08243	1.82772	-0.08143	-0.08833	1.52950	-0.08616	-0.06832	1.39535	0.67792	-0.03271	1.45756	0.52915	0.03061	1.39338	0.66533	0.00907	1.37119	0.38221	0.08329	1.17568	0.09942	0.14654	1.32571	-0.06188	0.06691	1.50728	0.08207	-0.05474	1.71218	-0.02524	-0.10140	1.33534	-0.07258 
963	8.017	-0.04423	1.56387	0.08753	-0.10951	1.36776	-0.00621	-0.03142	1.71655	-0.12774	-0.03261	1.50184	0.26235	-0.10422	1.47342	0.06335	-0.04261	1.47949	0.39410	0.11164	1.48897	-0.07759	0.06729	1.80996	0.01982	0.08241	1.82772	-0.08148	-0.08833	1.52950	-0.08616	-0.06829	1.39499	0.67783	-0.03258	1.45738	0.52930	0.03070	1.39308	0.66530	0.00915	1.37100	0.38212	0.08332	1.17564	0.09941	0.14653	1.32572	-0.06185	0.06691	1.50724	0.08207	-0.05474	1.71120	-0.02506	-0.10137	1.33529	-0.07256 
964	8.025	-0.04422	1.56392	0.08750	-0.10953	1.36842	-0.00568	-0.03115	1.71644	-0.12746	-0.03264	1.50170	0.26234	-0.10423	1.47341	0.06335	-0.04243	1.47957	0.39444	0.11171	1.48902	-0.07751	0.06716	1.80985	0.01974	0.08237	1.82774	-0.08147	-0.08831	1.52948	-0.08612	-0.06824	1.39457	0.67776	-0.03256	1.45707	0.52926	0.03073	1.39273	0.66523	0.00914	1.37074	0.38206	0.08350	1.17553	0.09947	0.14649	1.32568	-0.06187	0.06692	1.50725	0.08208	-0.05477	1.71118	-0.02506	-0.10135	1.33527	-0.07257 
965	8.033	-0.04421	1.56380	0.08760	-0.10951	1.36841	-0.00569	-0.03148	1.71655	-0.12777	-0.03264	1.50156	0.26236	-0.10425	1.47341	0.06335	-0.04241	1.47935	0.39444	0.11162	1.48896	-0.07761	0.06712	1.80984	0.01971	0.08238	1.82771	-0.08149	-0.08835	1.52949	-0.08612	-0.06818	1.39415	0.67769	-0.03246	1.45686	0.52928	0.03075	1.39239	0.66520	0.00913	1.37052	0.38195	0.08350	1.17553	0.09950	0.14649	1.32569	-0.06188	0.06690	1.50722	0.08210	-0.05478	1.71216	-0.02525	-0.10136	1.33528	-0.07254 
966	8.042	-0.04380	1.56364	0.08810	-0.10953	1.36842	-0.00567	-0.03122	1.71648	-0.12752	-0.03261	1.50144	0.26239	-0.10425	1.47338	0.06335	-0.04243	1.47913	0.39441	0.11160	1.48893	-0.07765	0.06708	1.80985	0.01973	0.08234	1.82771	-0.08150	-0.08833	1.52945	-0.08611	-0.06812	1.39373	0.67764	-0.03253	1.45647	0.52923	0.03081	1.39206	0.66515	0.00924	1.37031	0.38185	0.08358	1.17552	0.09953	0.14650	1.32569	-0.06188	0.06694	1.50719	0.08207	-0.05844	1.71427	-0.02476	-0.10133	1.33528	-0.07252 
967	8.050	-0.04419	1.56376	0.08764	-0.10951	1.36838	-0.00567	-0.03120	1.71643	-0.12751	-0.03257	1.50130	0.26239	-0.10421	1.47337	0.06337	-0.04241	1.47889	0.39442	0.11160	1.48893	-0.07763	0.06704	1.80984	0.01971	0.08230	1.82773	-0.08150	-0.08834	1.52946	-0.08612	-0.06804	1.39328	0.67756	-0.03242	1.45625	0.52923	0.03083	1.39167	0.66508	0.00918	1.37004	0.38171	0.08344	1.17564	0.09945	0.14648	1.32568	-0.06192	0.06695	1.50718	0.08208	-0.05848	1.71423	-0.02477	-0.10130	1.33526	-0.07248 
968	8.058	-0.04419	1.56373	0.08767	-0.10949	1.36836	-0.00567	-0.03117	1.71641	-0.12749	-0.03255	1.50116	0.26240	-0.10422	1.47334	0.06337	-0.04243	1.47864	0.39441	0.11160	1.48892	-0.07763	0.06701	1.80985	0.01969	0.08227	1.82773	-0.08151	-0.08834	1.52945	-0.08612	-0.06806	1.39285	0.67746	-0.03238	1.45595	0.52924	0.03083	1.39122	0.66501	0.00919	1.36982	0.38159	0.08360	1.17547	0.09956	0.14649	1.32566	-0.06192	0.06691	1.50714	0.08211	-0.05850	1.71422	-0.02479	-0.10128	1.33523	-0.07248 
969	8.067	-0.04418	1.56370	0.08770	-0.10951	1.36836	-0.00568	-0.03123	1.71636	-0.12752	-0.03256	1.50103	0.26238	-0.10425	1.47334	0.06335	-0.04243	1.47844	0.39442	0.11158	1.48889	-0.07767	0.06697	1.80987	0.01965	0.08223	1.82773	-0.08151	-0.08834	1.52943	-0.08611	-0.06803	1.39240	0.67740	-0.03237	1.45564	0.52924	0.03082	1.39034	0.66470	0.00919	1.36958	0.38147	0.08368	1.17552	0.09955	0.14649	1.32565	-0.06191	0.06692	1.50711	0.08210	-0.05851	1.71418	-0.02480	-0.10124	1.33523	-0.07245 
970	8.075	-0.04419	1.56364	0.08772	-0.10947	1.36832	-0.00567	-0.03129	1.71634	-0.12754	-0.03256	1.50088	0.26240	-0.10425	1.47331	0.06336	-0.04245	1.47822	0.39442	0.11160	1.48891	-0.07766	0.06692	1.80987	0.01963	0.08216	1.82773	-0.08155	-0.08836	1.52943	-0.08614	-0.06802	1.39197	0.67733	-0.03238	1.45530	0.52922	0.03090	1.38992	0.66465	0.00915	1.36935	0.38136	0.08363	1.17550	0.09955	0.14651	1.32565	-0.06191	0.06690	1.50709	0.08213	-0.05798	1.71446	-0.02447	-0.10124	1.33523	-0.07245 
971	8.083	-0.04417	1.56363	0.08777	-0.10949	1.36831	-0.00568	-0.03157	1.71646	-0.12784	-0.03255	1.50073	0.26241	-0.10424	1.47332	0.06333	-0.04249	1.47796	0.39439	0.11164	1.48895	-0.07757	0.06688	1.80989	0.01962	0.08215	1.82773	-0.08158	-0.08837	1.52941	-0.08611	-0.06798	1.39151	0.67726	-0.03254	1.45482	0.52915	0.03094	1.38952	0.66454	0.00914	1.36909	0.38124	0.08369	1.17552	0.09956	0.14651	1.32564	-0.06192	0.06688	1.50706	0.08211	-0.05804	1.71446	-0.02452	-0.10119	1.33518	-0.07246 
